<svg id="Capa_1" data-name="Capa 1" xmlns="http://www.w3.org/2000/svg" viewBox="0 0 130.05 63"><defs><style>.cls-1{fill:#484848;}</style></defs><title>experience-funitec</title><polygon class="cls-1" points="34.45 58.45 0 61.77 38.62 35.08 0.83 6.68 69.69 21.71 107.47 0 96.58 14.2 65.09 27.15 15.12 12.54 46.6 37.15 12.19 57.2 34.45 58.45"/><polygon class="cls-1" points="32.59 62.7 41.31 54.07 52.07 54.07 50.4 55.73 41.98 55.73 40.73 56.98 44.51 56.98 42.63 59.05 39.54 59.05 35.96 62.62 32.59 62.7"/><path class="cls-1" d="M52.88,85.49h3.7s-6.75,5.22-5.08,6.4a18.94,18.94,0,0,0,5.12-.18c2.4-.88,6.7-6.22,6.7-6.22h3.76S60.21,92.31,59,93a7.45,7.45,0,0,1-2,.83,33.45,33.45,0,0,1-7.52,0,2.42,2.42,0,0,1-1.27-1.9C48.2,89.83,52.88,85.49,52.88,85.49Z" transform="translate(0.05 -31)"/><polygon class="cls-1" points="60.69 62.37 68.98 54.07 73.15 54.07 73.15 59.07 78.1 54.07 82.26 54.07 73.97 62.37 69.81 62.37 69.81 58.24 65.68 62.37 60.69 62.37"/><polyline class="cls-1" points="77.27 62.37 85.62 54.07 88.99 54.07 80.64 62.37 77.27 62.37 80.66 62.37"/><polygon class="cls-1" points="87.31 62.6 93.61 56.56 89.77 56.56 91.81 54.49 115.03 54.49 113.03 56.15 97.41 56.15 91.36 62.48 87.31 62.6"/><polygon class="cls-1" points="111.69 57.81 99.92 57.81 98.25 59.47 109.98 59.47 111.69 57.81"/><polygon class="cls-1" points="108.31 61.13 106.64 62.79 94.86 62.79 96.58 61.13 108.31 61.13"/><path class="cls-1" d="M113.18,89.55c.63-1.38,3.79-3.77,4.91-4.06,3.1-.81,11.91,0,11.91,0l-2.08,2.07a49.05,49.05,0,0,0-7.66-.41,4.23,4.23,0,0,0-1.65.37c-.7.41-2.18,1.3-2.5,2a2.51,2.51,0,0,0,0,1.75,2.16,2.16,0,0,0,1.31.83,45.39,45.39,0,0,1,6.82,0l-1.7,1.66s-6.6.24-7.66,0a3.84,3.84,0,0,1-1.7-1.66A4.14,4.14,0,0,1,113.18,89.55Z" transform="translate(0.05 -31)"/></svg>