<svg id="Capa_1" data-name="Capa 1" xmlns="http://www.w3.org/2000/svg" viewBox="0 0 130 130"><defs><style>.cls-1{fill:#fefefd;}.cls-2{fill:#a3ae35;}.cls-3{fill:#a4af38;}</style></defs><title>Mesa de trabajo 1</title><path class="cls-1" d="M65.86,138.06q-37.63,0-75.27,0c-2.12,0-3.16,0-3.15-2.82q.17-75.66,0-151.32c0-2.46.67-2.74,2.86-2.73q75.66.11,151.32,0c2.46,0,2.74.67,2.73,2.86q-.1,75.66,0,151.32c0,2.46-.67,2.74-2.86,2.73C116.3,138,91.08,138.06,65.86,138.06ZM21.06,44v-7.8c0-8.58.11-17.15-.06-25.73-.12-5.86-4-9.07-10.39-9C4.74,1.47.73,4.57.72,9.63c0,22-.5,43.93.24,65.87.79,23,14.3,39.56,36.39,46.18a97.28,97.28,0,0,0,47.75,1.88c29.15-5.89,44.32-24.47,44.4-54.2q.06-29.23,0-58.47c0-5.62-3.14-8.93-8.72-9.38-7.74-.62-11.67,3-11.69,10.85,0,20.4,0,40.8,0,61.2,0,16.15-8.19,27.82-23.35,33.22-11.3,4-22.88,4.29-34.55,1.91C33.78,105.13,20.17,93.4,21,71.3,21.35,62.22,21.06,53.11,21.06,44Zm54.6,12.14c0-5.85,0-11.69,0-17.54C75.58,32.46,72,28.81,66,28.75s-9.76,3.53-9.83,9.68c-.13,11.82-.11,23.65,0,35.48.06,6.15,4.17,10.08,10.08,10,5.58-.06,9.32-4.08,9.38-10.22C75.7,67.86,75.66,62,75.66,56.16Zm0-44.2a11.94,11.94,0,1,0,23.88-.17A11.8,11.8,0,0,0,87.68,0,11.65,11.65,0,0,0,75.66,12Z"/><path class="cls-2" d="M21.06,44c0,9.09.29,18.2-.06,27.28-.83,22.1,12.78,33.83,30.18,37.39,11.67,2.38,23.25,2.1,34.55-1.91,15.16-5.4,23.32-17.07,23.35-33.22,0-20.4,0-40.8,0-61.2,0-7.87,4-11.47,11.69-10.85,5.58.45,8.71,3.76,8.72,9.38q0,29.24,0,58.47c-.08,29.73-15.25,48.31-44.4,54.2a97.28,97.28,0,0,1-47.75-1.88C15.26,115.06,1.75,98.5,1,75.5.22,53.56.67,31.59.72,9.63c0-5.06,4-8.16,9.89-8.18,6.38,0,10.27,3.18,10.39,9,.17,8.58.06,17.15.06,25.73Z"/><path class="cls-2" d="M75.66,56.16c0,5.85,0,11.7,0,17.55-.06,6.14-3.8,10.16-9.38,10.22-5.91.06-10-3.87-10.08-10-.1-11.83-.12-23.66,0-35.48.07-6.15,3.91-9.74,9.83-9.68s9.55,3.71,9.62,9.87C75.71,44.47,75.66,50.31,75.66,56.16Z"/><path class="cls-3" d="M75.66,12a11.65,11.65,0,0,1,12-12,11.8,11.8,0,0,1,11.86,11.8A11.94,11.94,0,1,1,75.66,12Z"/></svg>