<svg id="Capa_1" data-name="Capa 1" xmlns="http://www.w3.org/2000/svg" viewBox="0 0 26.8 15.68"><defs><style>.cls-1{fill:#070308;}</style></defs><title>icono-education</title><polygon class="cls-1" points="26.8 5.11 13.51 0 0 5.11 13.51 9.49 26.8 5.11"/><path class="cls-1" d="M23,17.84V14.08l-8,2.66L7.08,14.08v3.73a17.12,17.12,0,0,1,8,2.56A14.6,14.6,0,0,1,23,17.84Z" transform="translate(-1.6 -6.77)"/><path class="cls-1" d="M23.75,17v5.41H25.3V17a.67.67,0,0,0-.33-.57.8.8,0,0,0,.33-.64.78.78,0,0,0-.44-.69h0v-1.7l-.67.21v1.49a.78.78,0,0,0-.12,1.34A.65.65,0,0,0,23.75,17Z" transform="translate(-1.6 -6.77)"/></svg>